<svg xmlns="http://www.w3.org/2000/svg" width="512" height="512" viewBox="0 0 512 512"><defs><style>.a{fill:#ffb0b0;}.b{fill:#ff6f6f;}.c{fill:#ff7171;}.d{fill:#ff7373;}.e{fill:#ffc271;}.f{fill:#ffe26f;}.g{fill:#fff4b0;}.h{fill:#ff9e73;}</style></defs><path class="a" d="M439.5,253.67h-30v44.49H271V75H241V298.16H102.5V253.67h-30v74.49H241V437.5h30V328.16H439.5Z"/><path class="b" d="M439.5,253.67v74.49H271V437.5h-15.24V75H271V298.16H409.5V253.67Z"/><path class="c" d="M135,422.5H377V497H135Z"/><path class="d" d="M255.756,422.5H377V497H255.756Z"/><path class="e" d="M301,45a45.048,45.048,0,0,1-45,45h-.24a45,45,0,0,1,0-90H256A45.048,45.048,0,0,1,301,45Z"/><path class="f" d="M11.259,161.667l13.9,107H148.844l13.9-107Z"/><path class="g" d="M0,161.667H174v30H0Z"/><path class="e" d="M349.259,161.667l13.9,107H486.844l13.9-107Z"/><path class="f" d="M338,161.667H512v30H338Z"/><path class="a" d="M107,482H405v30H107Z"/><path class="h" d="M301,45a45.048,45.048,0,0,1-45,45h-.24V0H256A45.048,45.048,0,0,1,301,45Z"/><path class="b" d="M255.756,482H405v30H255.756Z"/></svg>