<svg xmlns="http://www.w3.org/2000/svg" width="512" height="512" viewBox="0 0 512 512"><defs><style>.a{fill:#ff668e;}.b{fill:#dc003c;}.c{fill:#e0445d;}.d{fill:#a00;}.e{fill:#ffb8b8;}.f{fill:#f4eaea;}.g{fill:#eacaca;}.h{fill:#ff7373;}</style></defs><g transform="translate(0 0)"><path class="a" d="M31.251,497h90.013V422.429l-44.9-30-45.114,30Z"/><path class="b" d="M150.745,497h90.013V302.245l-45.007-30-45.006,30Z"/><path class="c" d="M270.739,497h90.014V359.729l-44.9-30-45.114,30Z"/><path class="d" d="M390.733,294.331V497h90.014V294.331l-44.9-30Z"/><path class="e" d="M512,0V89.94H481.984V51.23L322.536,210.68l-64.665-64.67L208.024,96.16,21.342,282.85.11,261.65,208.024,53.72l49.847,49.85,64.665,64.67L460.772,30H422.2V0Z"/><path class="f" d="M31.465,332.429h89.8v90h-89.8Z"/><path class="f" d="M150.745,212.245h90.014v90H150.745Z"/><path class="g" d="M270.953,269.729h89.8v90h-89.8Z"/><path class="g" d="M390.573,204.331h90.549v90H390.573Z"/><path class="f" d="M0,482H512v30H0Z"/><path class="h" d="M512,0V89.94H481.984V51.23L322.536,210.68l-64.665-64.67V103.57l64.665,64.67L460.772,30H422.2V0Z"/><path class="g" d="M256,482H512v30H256Z"/></g></svg>