<svg xmlns="http://www.w3.org/2000/svg" width="512.001" height="492.308" viewBox="0 0 512.001 492.308"><defs><style>.a{fill:#da6969;}.b{fill:#ffa4a4;}.c{fill:#c64f4f;}.d{fill:#ff7373;}</style></defs><g transform="translate(0 -9.846)"><path class="a" d="M451.938,374.154H156.023a14.769,14.769,0,0,1-14.391-11.448L67.02,39.385H14.769a14.769,14.769,0,0,1,0-29.539h64A14.769,14.769,0,0,1,93.16,21.294l34.886,151.175,39.726,172.146H451.938a14.769,14.769,0,0,1,0,29.539Z"/><path class="b" d="M508.764,74.466a14.77,14.77,0,0,0-11.533-5.542H92.4a14.77,14.77,0,0,0-14.391,18.09l45.444,196.923a14.77,14.77,0,0,0,14.391,11.448H452.923a14.769,14.769,0,0,0,14.409-11.527L511.64,86.935A14.769,14.769,0,0,0,508.764,74.466Z"/><path class="a" d="M216.615,393.846A54.154,54.154,0,1,0,270.769,448,54.215,54.215,0,0,0,216.615,393.846Z"/><path class="c" d="M393.846,393.846A54.154,54.154,0,1,0,448,448,54.215,54.215,0,0,0,393.846,393.846Z"/><path class="c" d="M451.938,344.616H256v29.538H451.938a14.769,14.769,0,1,0,0-29.538Z"/><path class="d" d="M497.231,68.923H256V295.385H452.923a14.769,14.769,0,0,0,14.409-11.527L511.64,86.935a14.769,14.769,0,0,0-14.409-18.012Z"/></g></svg>