<svg xmlns="http://www.w3.org/2000/svg" width="474" height="512" viewBox="0 0 474 512"><defs><style>.a{fill:#f4eaea;}.b{fill:#eacaca;}.c{fill:#dba7a7;}.d{fill:#00dc7b;}.e{fill:#ff6f83;}</style></defs><g transform="translate(-19)"><path class="a" d="M47.38,0H493V512H47.38Z"/><path class="b" d="M270.19,0H493V512H270.19Z"/><path class="c" d="M301.2,116.806h97.284v29.942H301.2Z"/><path class="c" d="M301.2,241.113h97.284v29.942H301.2Z"/><path class="c" d="M301.2,375.229h97.284v29.942H301.2Z"/><path class="d" d="M255.221,103.814,234.008,82.643,185.49,131.067l-22.456-22.413L141.82,129.826l43.67,43.584Z"/><path class="d" d="M185.49,257.213,163.034,234.8,141.82,255.972l43.67,43.584,69.731-69.6-21.213-21.171Z"/><path class="d" d="M185.49,383.358l-22.457-22.411L141.82,382.118,185.49,425.7l69.731-69.6-21.213-21.171Z"/><path class="e" d="M19,327.682h82.765v29.942H19Z"/><path class="e" d="M19,414.336h82.765v29.942H19Z"/><path class="e" d="M19,154.374h82.765v29.942H19Z"/><path class="e" d="M19,241.028h82.765V270.97H19Z"/><path class="e" d="M19,67.72h82.765V97.662H19Z"/></g></svg>