<svg xmlns="http://www.w3.org/2000/svg" width="512" height="512" viewBox="0 0 512 512"><defs><style>.a{fill:#f4eaea;}.b{fill:#eacaca;}.c{fill:#811818;}.d{fill:#ff9191;}.e{fill:#d35a5a;}.f{fill:#ffe26f;}.g{fill:#ffc271;}.h{fill:#00dc7b;}.i{fill:#ff668e;}.j{fill:#dba7a7;}.k{fill:#00aa8e;}.l{fill:#5f0000;}.m{fill:#e04496;}</style></defs><g transform="translate(542 1121)"><g transform="translate(-542 -1121)"><path class="a" d="M0,28.543H387.91V511.87H0Z"/><path class="b" d="M193.95,28.543H387.91V511.87H193.95Z"/><path class="c" d="M104.76,0H283.05V90.017H104.76Z"/><path class="b" d="M118.63,337.414H269.27v29.992H118.63Z"/><path class="b" d="M98.57,277.929H289.43v29.992H98.57Z"/><path class="b" d="M163.87,397.4h60.16v29.992H163.87Z"/></g><path class="d" d="M512,448.846l-27.511,36.966L465,512l-47-63.154,47-39.99Z" transform="translate(-542 -1121)"/><path class="e" d="M512,448.846,465,512V408.856Z" transform="translate(-542 -1121)"/><path class="f" d="M418,88.308h94V448.846H418Z" transform="translate(-542 -1121)"/><path class="g" d="M465,88.308h47V448.846H465Z" transform="translate(-542 -1121)"/><path class="h" d="M250.7,164.988l-56.75,56.746L180.97,234.71,137.3,191.051l21.21-21.214,22.46,22.454,12.98-12.977,35.54-35.53Z" transform="translate(-542 -1121)"/><path class="i" d="M418,28.543h94V88.308H418Z" transform="translate(-542 -1121)"/><g transform="translate(-542 -1121)"><path class="j" d="M194,397.4h30.03v29.992H194Z"/><path class="j" d="M194,337.414h75.27v29.992H194Z"/><path class="j" d="M194,277.929h95.43v29.992H194Z"/></g><path class="k" d="M250.7,164.988l-56.75,56.746v-42.42l35.54-35.53Z" transform="translate(-542 -1121)"/><path class="l" d="M193.95,0h89.1V90.017h-89.1Z" transform="translate(-542 -1121)"/><path class="m" d="M465,28.543h47V88.308H465Z" transform="translate(-542 -1121)"/></g></svg>