<svg xmlns="http://www.w3.org/2000/svg" width="512" height="512" viewBox="0 0 512 512"><defs><style>.a{fill:#ffa1a1;}.b{fill:#f07f8e;}.c{fill:#eacaca;}.d{fill:#ffe7e7;}.e{fill:#dba7a7;}.f{fill:#811818;}.g{fill:#5f0000;}</style></defs><path class="a" d="M512,0V322.77l-256,45-256-45V0Z"/><path class="b" d="M512,0V322.77l-256,45V0Z"/><path class="c" d="M333.512,103.613v30H360.93l-98.64,98.636L283.5,253.462l98.641-98.637V182.35h30V103.613Z"/><path class="d" d="M175.964,160.384c-11.274,0-20.8-7.494-20.8-16.364s9.525-16.364,20.8-16.364,20.8,7.494,20.8,16.364h30c0-20.8-15.087-38.445-35.8-44.3V84.6h-30V99.72c-20.711,5.854-35.8,23.5-35.8,44.3,0,25.565,22.788,46.364,50.8,46.364,11.274,0,20.8,7.494,20.8,16.364s-9.524,16.364-20.8,16.364-20.8-7.494-20.8-16.364h-30c0,20.8,15.088,38.446,35.8,44.3V266.17h30V251.048c20.711-5.854,35.8-23.5,35.8-44.3,0-25.566-22.788-46.365-50.8-46.365Z"/><path class="c" d="M351.24,491.79H160.76l36.75-99.23H314.49Z"/><path class="e" d="M314.49,392.56l36.75,99.23H256V392.56Z"/><path class="f" d="M107,482H405v30H107Z"/><path class="f" d="M0,322.77H512v90H0Z"/><path class="g" d="M256,482H405v30H256Z"/><path class="g" d="M256,322.77H512v90H256Z"/></svg>