<svg xmlns="http://www.w3.org/2000/svg" width="512" height="336.404" viewBox="0 0 512 336.404"><defs><style>.a{fill:#f4eaea;}.b{fill:#eacaca;}.c{fill:#dba7a7;}.d{fill:#811818;}.e{fill:#5f0000;}.f{fill:#d1406e;}.g{fill:#ffc8c8;}</style></defs><g transform="translate(0 -135.606)"><g transform="translate(0 95.616)"><path class="a" d="M0,70.01H512V383.038H0Z" transform="translate(0 -6.644)"/><path class="b" d="M256,70.01H512V383.038H256Z" transform="translate(0 -6.644)"/><g transform="translate(256 177.28)"><path class="c" d="M256,216.3H438.033v23.36H256Z" transform="translate(-256 -216.302)"/><path class="c" d="M256,276.01H438.033v23.36H256Z" transform="translate(-256 -229.517)"/><path class="c" d="M256,335.717H438.033v23.36H256Z" transform="translate(-256 -242.731)"/></g><path class="d" d="M166.86,39.99H345.14V110.1H166.86Z"/><path class="e" d="M256,39.99h89.14V110.1H256Z"/></g><path class="f" d="M130.4,277.117a69.314,69.314,0,0,0-69.235,69.234v49.235h138.47V346.351A69.312,69.312,0,0,0,130.4,277.117Z" transform="translate(0 33)"/><path class="g" d="M130.4,190.687c-32.389,0-58.74,26.114-58.74,58.214s26.351,58.215,58.74,58.215S189.139,281,189.139,248.9,162.788,190.687,130.4,190.687Z" transform="translate(0 33)"/></g></svg>