<svg xmlns="http://www.w3.org/2000/svg" width="300" height="512" viewBox="0 0 300 512"><g transform="translate(-885 1274)"><path d="M406,0V295.97l-65.89,65.92-84.11,20-84.11-20L106,295.97V0Z" transform="translate(779 -1274)" fill="#ffdb4b"/><path d="M406,0V295.97l-65.89,65.92-84.11,20V0Z" transform="translate(779 -1274)" fill="#ffb554"/><path d="M308.96,223.37c0,21.84-16.04,40.34-37.96,46.25V422.74H241V269.62c-21.92-5.91-37.96-24.41-37.96-46.25h30c0,10.04,10.3,18.21,22.96,18.21s22.96-8.17,22.96-18.21-10.3-18.22-22.96-18.22c-29.2,0-52.96-21.63-52.96-48.22,0-21.84,16.04-40.34,37.96-46.25V94h30v16.68c21.92,5.91,37.96,24.41,37.96,46.25h-30c0-10.04-10.3-18.22-22.96-18.22s-22.96,8.18-22.96,18.22,10.3,18.22,22.96,18.22C285.2,175.15,308.96,196.78,308.96,223.37Z" transform="translate(779 -1274)" fill="#fff4b0"/><g transform="translate(779 -1274)"><path d="M308.96,223.37c0,21.84-16.04,40.34-37.96,46.25V422.74H256V241.58c12.66,0,22.96-8.17,22.96-18.21s-10.3-18.22-22.96-18.22v-30C285.2,175.15,308.96,196.78,308.96,223.37Z" fill="#ffe26f"/><path d="M256,138.71V94h15v16.68c21.92,5.91,37.96,24.41,37.96,46.25h-30C278.96,146.89,268.66,138.71,256,138.71Z" fill="#ffe26f"/></g><path d="M211,422.74h90V512H211Z" transform="translate(779 -1274)" fill="#df7a7a"/><path d="M256,422.74h45V512H256Z" transform="translate(779 -1274)" fill="#811818"/><g transform="translate(779 -1274)"><path d="M141.89,392.311h50v30h-50Z" fill="#ffcaca"/><path d="M320.11,392.319h50v30h-50Z" fill="#811818"/></g><path d="M171.89,361.89H340.11v90.85H171.89Z" transform="translate(779 -1274)" fill="#f1a6a6"/><path d="M256,361.89H340.11v90.85H256Z" transform="translate(779 -1274)" fill="#df7a7a"/></g></svg>