<svg xmlns="http://www.w3.org/2000/svg" width="403.366" height="485.299" viewBox="0 0 403.366 485.299"><defs><style>.a{fill:#b0dc00;}.b{fill:#0a4;}.c{fill:#ffc8c8;}.d{fill:#ffa1a1;}.e{fill:#f88;}</style></defs><g transform="translate(-54.317)"><path class="a" d="M316.98,158.77c0,26.06-19.81,47.99-46.5,54.08V236h-30V212.85c-26.68-6.09-46.5-28.02-46.5-54.08h30c0,14.2,14.13,25.76,31.5,25.76s31.5-11.56,31.5-25.76S272.85,133,255.48,133c-33.91,0-61.5-25.02-61.5-55.77,0-26.06,19.82-47.99,46.5-54.08V0h30V23.15c26.69,6.09,46.5,28.02,46.5,54.08h-30c0-14.2-14.13-25.76-31.5-25.76s-31.5,11.56-31.5,25.76S238.11,103,255.48,103C289.4,103,316.98,128.02,316.98,158.77Z"/><path class="b" d="M316.98,158.77c0,26.06-19.81,47.99-46.5,54.08V236h-15V184.53c17.37,0,31.5-11.56,31.5-25.76S272.85,133,255.48,133V103C289.4,103,316.98,128.02,316.98,158.77Z"/><path class="b" d="M255.48,51.47V0h15V23.15c26.69,6.09,46.5,28.02,46.5,54.08h-30c0-14.2-14.13-25.76-31.5-25.76Z"/><g transform="translate(54.317 26.701)"><path class="c" d="M403.366,287.017a26.628,26.628,0,0,1-7.823,18.892l-91.892,95.918H103.544L42.873,458.6H0V367.249l30.749-30.772,110.012-23.635,60.923,17.238,22.626,6.4H289.88L357.8,268.133a26.691,26.691,0,0,1,45.568,18.884Z" transform="translate(0 0)"/><path class="d" d="M457.683,287.017a26.628,26.628,0,0,1-7.823,18.892l-91.892,95.918H256V330.079l22.626,6.4H344.2l67.918-68.344a26.691,26.691,0,0,1,45.568,18.884Z" transform="translate(-54.317 0)"/><path class="d" d="M259.054,316.249a26.481,26.481,0,0,1-26.463,26.479H39.03l31.686-31.71A72.487,72.487,0,0,1,121.98,289.77H232.591A26.473,26.473,0,0,1,259.054,316.249Z" transform="translate(-8.281 -6.251)"/><path class="e" d="M305.089,316.249a26.481,26.481,0,0,1-26.463,26.479H256V289.77h22.626A26.473,26.473,0,0,1,305.089,316.249Z" transform="translate(-54.317 -6.251)"/></g></g></svg>