<svg xmlns="http://www.w3.org/2000/svg" xmlns:xlink="http://www.w3.org/1999/xlink" width="376" height="512" viewBox="0 0 376 512"><defs><style>.a{fill:#fff;}.b{fill:url(#a);}.c{fill:url(#b);}</style><linearGradient id="a" x1="0.5" x2="0.5" y2="1" gradientUnits="objectBoundingBox"><stop offset="0" stop-color="#9bf3d0"/><stop offset="1" stop-color="#e9fecc"/></linearGradient><linearGradient id="b" x1="0.5" x2="0.5" y2="1" gradientUnits="objectBoundingBox"><stop offset="0" stop-color="#f07f8e"/><stop offset="1" stop-color="#be185a"/></linearGradient></defs><g transform="translate(-68)"><path class="a" d="M75.5,147.5h361v357H75.5Z"/><path class="b" d="M226.5,232.5l25.865,39.292,45.209-17.329-3.359,46.247L341.5,311.963,310.2,347.5l31.3,35.537L294.215,394.29l3.359,46.247-45.209-17.329L226.5,462.5l-25.865-39.292-45.209,17.329,3.359-46.247L111.5,383.037,142.8,347.5l-31.3-35.537,47.285-11.253-3.359-46.247,45.209,17.329Z"/><path class="c" d="M364.5,140V87.5a87.5,87.5,0,0,0-118-82.012A87.5,87.5,0,0,0,128.5,87.5V140H68V512H444V140ZM277,15a72.582,72.582,0,0,1,72.5,72.5V140h-46V87.5a87.458,87.458,0,0,0-37.38-71.682A72.84,72.84,0,0,1,277,15Zm11.5,125h-84V87.5a72.584,72.584,0,0,1,42-65.749,72.584,72.584,0,0,1,42,65.749Zm-145-52.5a72.519,72.519,0,0,1,83.38-71.682A87.458,87.458,0,0,0,189.5,87.5V140h-46ZM83,155h45.5v34h-22v15h62V189h-25V155h145v34h-22v15h62V189h-25V155H373V497H83ZM429,497H388V155h41ZM320.194,347.5l35.182-39.944-53.219-12.665,3.752-51.654-50.6,19.394L226.5,218.859,197.687,262.63l-50.6-19.394,3.751,51.654L97.624,307.555,132.805,347.5,97.624,387.443l53.218,12.665-3.751,51.654,50.6-19.394L226.5,476.139l28.812-43.771,50.6,19.394-3.752-51.654,53.219-12.665Zm-30.955,81.81-39.822-15.264L226.5,448.859l-22.917-34.813-39.822,15.265,2.966-40.84-41.351-9.841,27.417-31.13-27.417-31.13,41.351-9.841-2.966-40.84,39.822,15.265L226.5,246.141l22.917,34.813,39.822-15.264-2.967,40.839,41.352,9.841L300.206,347.5l27.418,31.13-41.352,9.841ZM240.167,315.173h15V381.4h-23.94l-16.934-51.647h-1.459v50.074h-15V314.753h27.327l15.006,45.769Z"/></g></svg>