<svg xmlns="http://www.w3.org/2000/svg" width="512" height="512" viewBox="0 0 512 512"><defs><style>.a{fill:#ef7d8d;}.b{fill:#ffc8c8;}.c{fill:#d1406e;}.d{fill:#ffa1a1;}.e{fill:#811818;}.f{fill:#5f0000;}.g{fill:#f4eaea;}.h{fill:#eacaca;}.i{fill:#3c0000;}.j{fill:#f07f8e;}.k{fill:#bd1659;}</style></defs><path class="a" d="M434.757,277.2l2.044.592a105.007,105.007,0,0,1,53.884,36.956A103.26,103.26,0,0,1,512,377.9V512H400.159L370.35,277.2Z"/><path class="b" d="M313.054,179.682a77.121,77.121,0,0,1,149.558,26.347v38.456a77.1,77.1,0,0,1-77.028,77H312.45V181.34Z"/><path class="c" d="M77.243,277.2,75.2,277.8a105.007,105.007,0,0,0-53.884,36.956A103.26,103.26,0,0,0,0,377.9V512H111.649l30-234.8Z"/><path class="d" d="M198.946,179.682A77.121,77.121,0,0,0,49.388,206.029v38.456a77.1,77.1,0,0,0,77.028,77H199.55V181.34Z"/><path class="e" d="M400.16,292.06V512H111.65V292.06a85.944,85.944,0,0,1,85.82-85.88H314.34A85.944,85.944,0,0,1,400.16,292.06Z"/><path class="f" d="M400.16,292.06V512H255.9V206.18h58.44A85.944,85.944,0,0,1,400.16,292.06Z"/><path class="g" d="M255.9,380.94c-52.86-51.36-53.65-139.75-52.61-166.02H308.53C309.55,241.39,308.67,329.67,255.9,380.94Z"/><path class="h" d="M255.9,380.94V214.92h52.63C309.55,241.39,308.67,329.67,255.9,380.94Z"/><path class="f" d="M320.31,273.42c-7.31,50.19-25.96,91.09-53.95,118.28L255.9,401.85,245.45,391.7c-27.99-27.19-46.65-68.07-53.95-118.2-5.42-37.14-2.82-66.31-2.71-67.54l29.88,2.77c-.09.97-7.78,92.89,37.23,149.84l.01.01c45.19-57.1,37.32-149.02,37.23-150l29.88-2.76C323.13,207.04,325.73,236.25,320.31,273.42Z"/><path class="i" d="M320.31,273.42c-7.31,50.19-25.96,91.09-53.95,118.28L255.9,401.85V358.57l.01.01c45.19-57.1,37.32-149.02,37.23-150l29.88-2.76C323.13,207.04,325.73,236.25,320.31,273.42Z"/><path class="b" d="M340.81,120.45v40.64a84.91,84.91,0,0,1-169.82,0V85.62l84.91,17.42Z"/><path class="d" d="M340.81,120.45v40.64a84.993,84.993,0,0,1-84.91,84.88V103.04Z"/><path class="j" d="M340.81,59.92v60.53H205.29a59.988,59.988,0,0,1-59.92-59.92V0H280.89A59.988,59.988,0,0,1,340.81,59.92Z"/><path class="k" d="M340.81,120.45H255.9V0h24.99a59.988,59.988,0,0,1,59.92,59.92Z"/></svg>