<svg xmlns="http://www.w3.org/2000/svg" xmlns:xlink="http://www.w3.org/1999/xlink" width="644" height="586.299" viewBox="0 0 644 586.299"><defs><style>.a{fill:none;}.b{clip-path:url(#a);}.c{fill:#ff2e50;}.d{fill:#b3004e;}.e{fill:#ffb8b8;}.f{fill:#ff7373;}.g{fill:#ffdfdf;}.h{fill:#ffefef;}.i{fill:#fcc;}.j{fill:#ffa4a4;}.k{fill:#500;}</style><clipPath id="a"><rect class="a" width="644" height="586.299"/></clipPath></defs><g class="b"><g transform="translate(0 -0.099)"><path class="c" d="M556.18,586.4,322,557.125,87.816,586.4a58.544,58.544,0,0,1-58.543-58.546V147.309A58.545,58.545,0,0,1,87.816,88.762L263.453,59.488A58.545,58.545,0,0,1,322,118.035a58.545,58.545,0,0,1,58.547-58.547L556.18,88.762a58.545,58.545,0,0,1,58.547,58.547V527.852A58.544,58.544,0,0,1,556.18,586.4Zm0,0"/><path class="d" d="M43.91,498.328a14.634,14.634,0,0,0-14.637,14.637v14.887A58.544,58.544,0,0,0,87.82,586.4L275.4,562.949A58.267,58.267,0,0,0,322,586.4h.645l.07,0h.168l.082,0H323l.117,0h.164l.074,0h.047l.071,0h.121l.051,0h.066l.051,0h.07l.047,0h.07l.047,0h.086l.031,0,.117,0h.036l.082,0h.047l.07,0,.055,0h.062l.051,0,.07,0h.051l.066,0,.051,0h.067l.05,0,.075,0,.042,0,.1,0h.027l.11-.008h.039l.074,0,.047,0,.074,0,.047,0,.07,0,.051,0,.067,0h.05l.067,0,.051,0,.066-.008.051,0,.074,0,.043,0,.113-.008h.024l.093-.008.043,0,.075,0,.046,0,.071-.008.051,0,.066,0,.051,0,.062,0,.055,0,.062-.007.051,0,.074,0,.129-.012.028,0,.117-.012h.031l.129-.011.07-.008.051-.008.067,0,.05-.008.063,0,.055,0L328,586.1l.051-.008.066,0,.051-.008.07-.008.047,0,.082-.007.039,0,.106-.012.039-.008.074-.008.051,0,.066-.007.047-.008.066-.008.051,0,.067-.008.047-.008.07-.007.047-.008.07-.008.047-.008.07-.008.043,0,.113-.016.028,0,.086-.012.051,0,.062-.007.055-.008.062-.008.051-.008.066-.008.051-.008.063-.007.05-.008.063-.012.055,0,.062-.011.047,0,.078-.012.039-.008.114-.016.031,0,.078-.012.164-.028.066-.007.051-.012.063-.008.05-.008.063-.011.051-.008.066-.008.051-.008.066-.012.047-.007.086-.016.027,0,.11-.019.039,0,.074-.016.051-.008.062-.011.051-.008.063-.012.05-.008.063-.012.051-.007.062-.012.051-.008.063-.012.046-.007.079-.016.035-.008.113-.019.016,0,.14-.024.067-.011.046-.012.067-.012.051-.008.062-.011.051-.012.062-.012.051-.012.063-.011.047-.008.066-.016.047-.008.066-.011.047-.012.106-.02.05-.011.063-.012.051-.012.062-.011.051-.012.059-.012.05-.012.063-.011.051-.012.062-.016.047-.007.066-.016.047-.012.067-.011.047-.012.074-.016.035-.008L334.7,585l.035-.008.079-.019.043-.008.066-.016.109-.027.055-.012.059-.012.05-.011.059-.016.055-.012.054-.015.051-.012.063-.016.152-.035.02,0,.093-.023.043-.012.071-.016.046-.011.059-.016.055-.012.058-.015.051-.012.059-.016.05-.011.059-.016.055-.016.051-.011.117-.031.051-.012.105-.028.039-.011.07-.016.051-.016.059-.015.054-.016.051-.011.059-.016.051-.016.058-.015.051-.012.055-.02.054-.011.164-.047.063-.016.051-.015.1-.028.274-.078.051-.016.058-.015.051-.012.059-.019.05-.012.059-.02.051-.015.054-.016.051-.016.059-.015.051-.016.093-.027.067-.02.05-.015.055-.016.055-.019.051-.016.058-.016.051-.015.055-.016.05-.016.27-.089.047-.012.062-.02.024-.007.144-.047.039-.012.106-.035.055-.02.05-.015.059-.02.043-.016.062-.019.352-.117.23-.082.047-.012.059-.023.043-.016.062-.02.043-.015.063-.024.043-.011.058-.024.153-.051.058-.023.043-.016.063-.023.023-.008.164-.059.016,0,.066-.024.039-.015.063-.024.039-.012.062-.023.043-.016.063-.023.043-.016.062-.023.043-.016.059-.023.043-.016.062-.023.039-.016c.086-.031.168-.062.25-.094l.012,0,.074-.027.032-.016.066-.023.035-.016.067-.023.035-.016.066-.027.039-.012.063-.027.039-.016.066-.023.028-.012.074-.027.019-.008.278-.113.078-.032.027-.007.07-.032.032-.011.066-.028.035-.015.067-.028.035-.015.07-.028.027-.011.075-.032.019-.007c.121-.051.242-.1.364-.157l.007,0,.078-.031.028-.012.07-.031.027-.012.071-.031.031-.011.07-.032.028-.011.07-.032.031-.011.071-.032.015-.007c.121-.051.238-.106.356-.157l.019-.008.074-.035.028-.011.07-.032.027-.011.071-.036.027-.011.074-.035.02-.008.078-.035.016-.008c.152-.071.308-.141.457-.211l.007,0,.082-.039.02-.008.078-.039.02-.008.074-.035.023-.012.074-.035.02-.008.078-.039.012-.008c.152-.07.3-.148.457-.222l.008,0,.082-.039.093-.047.02-.008.074-.039.11-.055c.183-.089.363-.183.543-.273l.015-.008.074-.039.024-.012.074-.039.016-.007.082-.043.011,0,.086-.047c.153-.082.3-.16.461-.242l.086-.047.008,0,.082-.047.012,0,.086-.047,0,0,.09-.047c.246-.132.488-.265.73-.4.3-.168.594-.34.887-.512a14.636,14.636,0,0,0-14.817-25.246A28.092,28.092,0,0,1,322,557.133a28.994,28.994,0,0,1-23.23-11.813,29.271,29.271,0,0,0-27-11.41L86.3,557.094a29.307,29.307,0,0,1-27.758-29.235v-14.89A14.637,14.637,0,0,0,43.91,498.328Zm361.235,39.8a14.637,14.637,0,0,0-1.8,29.16l87.672,10.957.039,0,.551.07.128.016,4.567.57.086.012.129.016.043,0,.273.036.2.027.715.086.207.027,4.012.5.172.024.211.027.125.016.121.015.031,0,3.16.4.07.007,3.325.418h.008l.8.1.063.008.547.07.082.008.992.125.129.016.105.015,1.192.149h.015l.383.047.024,0,.183.023.024,0,.375.047.074.008.117.015.031,0,.551.066.242.032.344.043.078.011.16.02.094.012.492.062.078.008.1.012.328.043.106.011.234.028.738.093.121.016.051,0,.277.035.161.02.285.039.113.011.023,0,.543.067.11.015.039,0,.14.02.309.039.281.031.594.074.16.024.153.015.238.032.09.011.242.028.1.015.321.039.09.012.7.086.367.047.019,0,.317.039.1.012.286.035.054.008.328.043.055,0,1.613.2.028,0,.129.015.086.012.218.027.168.02.192.023.082.012.332.039.113.016.637.078.023,0,1.531.191.536.066.07.012.262.031.074.008.113.016.422.055.082.007.051.008.183.02.637.082.129.015.211.028.152.019.082.008.243.031.4.051.223.027.132.016,1.231.156h.019l1.254.157h.012l.59.074.058.008.106.015.375.047.039,0,.094.012.566.07.024,0,1.742.215.054.008,1.114.14,1.066.133.082.012.09.008.008,0,6.582.821.027,0,.774.1.027,0,.086.012h0l2.687.336h0l2.055.254.012,0,1.707.215h.547l.058,0h.242l.09,0h.211l.035,0h.164l.039,0h.1l.059,0h.1l.047,0h.1l.078,0h.019l.1,0h.023l.075,0h.035l.066,0h.035l.063,0h.039l.059,0h.042l.055,0h.047l.055,0h.043l.062,0,.039,0h.074l.024,0,.1,0h.027l.074,0,.031,0h.063l.043,0,.058,0h.043l.055,0,.047,0,.055,0h.043l.054,0,.043,0,.063,0h.035l.078-.008h.02l.1,0,.016,0,.082,0,.031,0,.066,0,.04,0,.062,0,.039,0,.059,0h.039l.062,0,.039,0,.063,0,.031,0,.07-.008h.032l.082-.008h.015l.2-.016h.027l.066-.007.043,0,.059,0,.039,0,.062,0,.036,0,.062,0,.035,0,.063-.008h.039l.062-.007.106-.012h.027l.2-.02h.024l.078-.008.023,0,.075-.008.031,0,.07-.008.028,0,.066,0,.035,0,.066-.007.032,0,.07-.008.027,0,.079-.008h.019l.09-.012h.012l.1-.011h.012L563,586l.027,0,.071-.008.031,0,.066-.008.035,0,.063-.008.035,0,.063-.008.035,0,.066-.008.031,0,.075-.007.023,0,.2-.028.094-.011h.023l.079-.012.027,0,.066-.008.032,0,.066-.011.035,0,.067-.008.027,0,.07-.012.031,0,.075-.007.019,0c.1-.016.2-.028.3-.043l.016,0,.082-.012.023,0,.074-.012.024,0,.074-.007.027,0,.067-.012.031,0,.07-.012.028,0,.078-.012.015,0c.1-.016.2-.031.3-.051h.012l.082-.016.094-.015.031,0,.066-.012.036,0,.062-.011.031,0,.067-.012.035-.008.066-.012.028,0,.078-.012.019,0,.2-.035.007,0,.086-.016.028,0,.066-.011.031-.008.067-.012.031,0,.066-.012.032-.007.07-.012.027,0,.075-.016.019,0,.086-.015.012,0,.2-.035,0,0,.09-.016.023,0,.074-.015.024,0,.074-.016.024,0,.074-.015.019,0,.075-.016.023,0,.082-.015.012,0,.09-.02h.007l.2-.043h0l.093-.019.012,0,.082-.016.024-.008.074-.015.019,0,.071-.016.031,0,.066-.015.028,0,.074-.02.019,0,.082-.015.012,0,.094-.024h0l.2-.043.012,0,.082-.019.019,0,.075-.016.027-.007.066-.016.028-.008.066-.015.031-.008.067-.016.027-.008.07-.015.024,0,.285-.071.012,0,.082-.02.023-.008.07-.015.028-.008.066-.016.031-.008.067-.019.027,0,.067-.02.027-.007.074-.016.016-.008.09-.023h0l.2-.051h0l.09-.024.015,0,.074-.02.028-.008.066-.019.028-.008.066-.016.027-.008.071-.019.027-.008.066-.019.024,0,.086-.024.008,0,.191-.054h.008l.086-.024.019-.008.071-.019.027-.008.062-.02.036-.007.062-.02.027-.008.071-.019.023-.008.074-.023.016,0,.078-.024.016,0,.281-.082.016,0,.074-.023.027-.008.071-.019.019-.008.07-.02.024-.008.074-.023.016,0,.078-.023.015-.008.09-.024,0,0c.09-.027.184-.058.277-.085l.118-.04.066-.019.027-.012.067-.019.027-.008.063-.024.027-.007.066-.024.028-.008.066-.023.024,0,.082-.027.007,0,.094-.031h0l.086-.032.02,0,.074-.027.027-.008.063-.019.031-.012.094-.031.054-.02.035-.012.055-.019.035-.012.055-.019.035-.012.051-.02.043-.015.074-.024.039-.015.063-.02.031-.012.059-.023.039-.012.046-.015.043-.016.051-.019.039-.012.051-.02.039-.011.051-.02.039-.016.051-.019.039-.012.058-.019.028-.012.179-.066.028-.012.058-.02.039-.015.051-.02.039-.012.051-.019.039-.016.047-.015.043-.02.043-.016.047-.015.086-.031.051-.02.039-.016.054-.023.047-.016.074-.027.036-.016.05-.019.039-.016.051-.015.039-.02.051-.016.039-.015.047-.02.043-.015.043-.02.043-.015.047-.02.043-.016.043-.019.043-.016.043-.019.074-.028.055-.023.05-.02.035-.015.055-.02.031-.015.051-.02.035-.016.055-.019.031-.016.051-.019.035-.016.055-.019.031-.016.051-.02.035-.015.055-.024.023-.007c.067-.032.129-.055.2-.086l.035-.012.05-.024.032-.011.054-.024.032-.015.054-.024.032-.011.054-.024.032-.012.082-.035.058-.027.024-.008.062-.027.012-.008c.1-.043.211-.09.316-.137l.071-.031.015-.008.067-.031.015,0,.067-.031.019-.008.063-.031.019-.008.063-.031.015,0c.157-.075.317-.145.473-.219h0l.074-.035.078-.039.012,0,.074-.035h0l.559-.266.078-.039h0l.074-.035.008,0a58.763,58.763,0,0,0,19.215-14.957,14.637,14.637,0,0,0-22.395-18.852,29.236,29.236,0,0,1-20.855,10.348l-150.715-18.84A14.353,14.353,0,0,0,405.145,538.133Zm0,0"/><path class="e" d="M58.547,59.488H585.453A58.545,58.545,0,0,1,644,118.035V469.309a58.544,58.544,0,0,1-58.547,58.543H58.547A58.544,58.544,0,0,1,0,469.309V118.035A58.545,58.545,0,0,1,58.547,59.488Zm0,0"/><path class="f" d="M600.09,88.762A43.911,43.911,0,0,1,644,132.672v322a43.91,43.91,0,1,1-87.82,0v-322A43.911,43.911,0,0,1,600.09,88.762Zm0,0" transform="translate(0 -1)"/><path class="g" d="M322,527.852l-240.008-24A58.543,58.543,0,0,1,29.273,445.6V94.906A58.543,58.543,0,0,1,87.816,36.363q2.918,0,5.828.289L322,59.488Zm0,0"/><path class="g" d="M322,527.852l240.008-24A58.546,58.546,0,0,0,614.727,445.6V94.906A58.544,58.544,0,0,0,556.18,36.363q-2.919,0-5.825.289L322,59.488Zm0,0"/><path class="e" d="M556.18,59.488a29.277,29.277,0,0,0-29.274,29.269V440.035H409.816a29.272,29.272,0,0,0,0,58.543h117.09a58.544,58.544,0,0,0,58.547-58.543V88.762a29.271,29.271,0,0,0-29.269-29.273Zm0,0"/><path class="h" d="M322,30.215,139.332.7A45.835,45.835,0,0,0,87.816,46.176v370.73A58.547,58.547,0,0,0,139.9,475.094L322,498.578Zm0,0"/><path class="h" d="M322,30.215,504.668.453A45.835,45.835,0,0,1,556.184,45.93V411.121A58.551,58.551,0,0,1,504.1,469.309L322,498.582Zm0,0"/><path class="i" d="M351.273,30.215a29.275,29.275,0,0,1,29.274,29.274V469.309a29.273,29.273,0,0,1-58.547,0V59.488A29.272,29.272,0,0,1,351.273,30.215Zm0,0"/><path class="j" d="M336.637,59.488a14.638,14.638,0,0,1,14.636,14.637V454.672a14.637,14.637,0,1,1-29.273,0V74.125A14.639,14.639,0,0,1,336.637,59.488Zm0,0"/><path class="j" d="M409.816,30.215A29.273,29.273,0,0,1,439.09,59.488V293.672a29.271,29.271,0,0,1-58.543,0V59.488A29.271,29.271,0,0,1,409.816,30.215Zm0,0"/><path class="k" d="M278.105,322.945a14.278,14.278,0,0,1-2.886-.289L128.855,293.383a14.634,14.634,0,0,1,5.747-28.7l146.363,29.273a14.637,14.637,0,0,1-2.86,28.988Zm0,0"/><path class="k" d="M278.105,235.152a14.272,14.272,0,0,1-2.886-.285L128.855,205.594a14.634,14.634,0,1,1,5.747-28.7l146.363,29.273a14.634,14.634,0,0,1-2.86,28.984Zm0,0"/><path class="k" d="M278.105,147.309a14.35,14.35,0,0,1-2.886-.289l-73.184-14.633a14.639,14.639,0,0,1-11.476-17.227,14.487,14.487,0,0,1,16.929-11.535l.3.059,73.18,14.636a14.637,14.637,0,0,1-2.86,28.989Zm0,0"/><path class="k" d="M278.105,410.777a13.993,13.993,0,0,1-2.886-.285L128.855,381.223a14.636,14.636,0,0,1,5.747-28.7l146.363,29.273a14.634,14.634,0,0,1-2.86,28.984Zm0,0"/><path class="k" d="M365.895,322.945a14.637,14.637,0,0,1-2.86-28.988L509.4,264.684a14.634,14.634,0,0,1,5.747,28.7L368.781,322.656A14.278,14.278,0,0,1,365.895,322.945Zm0,0"/><path class="k" d="M365.895,235.152a14.637,14.637,0,0,1-2.86-28.988L509.4,176.891a14.636,14.636,0,1,1,5.747,28.7L368.781,234.867A14.272,14.272,0,0,1,365.895,235.152Zm0,0"/><path class="k" d="M365.895,147.309a14.637,14.637,0,0,1-2.86-28.989L509.4,89.047a14.636,14.636,0,0,1,5.747,28.7L368.781,147.02A14.35,14.35,0,0,1,365.895,147.309Zm0,0"/><path class="k" d="M365.895,410.777a14.634,14.634,0,0,1-2.86-28.984L509.4,352.52a14.634,14.634,0,0,1,5.747,28.7L368.781,410.492A13.993,13.993,0,0,1,365.895,410.777Zm0,0"/><path class="k" d="M175.637,88.762a29.273,29.273,0,1,1-29.274-29.273A29.273,29.273,0,0,1,175.637,88.762Zm0,0"/><path class="d" d="M380.547.941a29.271,29.271,0,0,1,29.269,29.273V264.4a29.271,29.271,0,0,1-58.543,0V30.215A29.276,29.276,0,0,1,380.547.941Zm0,0"/></g></g></svg>