<svg xmlns="http://www.w3.org/2000/svg" width="377" height="512" viewBox="0 0 377 512"><defs><style>.a{fill:#811818;}.b{fill:#5f0000;}.c{fill:#f66;}.d{fill:#e04444;}.e{fill:#f4eaea;}.f{fill:#eacaca;}.g{fill:#2ad7f5;}.h{fill:#ffe26f;}.i{fill:#ffc271;}.j{fill:#cae8ea;}.k{fill:#3ba9ff;}.l{fill:#b3d6e0;}</style></defs><g transform="translate(-67.5)"><path class="a" d="M333.71,339l-15,90H193.29l-15-90Z"/><path class="b" d="M333.71,339l-15,90h-62.7V339Z"/><path class="c" d="M67.5,237.614V360.84l108-41.538V154.537Z"/><path class="d" d="M336.5,154.537V319.3l108,41.538V237.614Z"/><path class="e" d="M366.5,102.54V369h-221V102.54L212.37,0h87.26Z"/><path class="f" d="M366.5,102.54V369H256.01V0h43.62Z"/><circle class="g" cx="45" cy="45" r="45" transform="translate(211 123)"/><path class="h" d="M241,458.33h30V512H241Z"/><path class="h" d="M181,474.333h30V512H181Z"/><path class="i" d="M301.333,474.333h30V512h-30Z"/><path class="j" d="M212.77,240.49h86.46v30H212.77Z"/><path class="i" d="M256,458.33h15V512H256Z"/><path class="k" d="M256,213V123a45,45,0,0,1,0,90Z"/><path class="l" d="M256,240.49h43.23v30H256Z"/></g></svg>