<svg xmlns="http://www.w3.org/2000/svg" width="429.94" height="512" viewBox="0 0 429.94 512"><defs><style>.a{fill:#f4eaea;}.b{fill:#eacaca;}.c{fill:#ff7d7d;}.d{fill:#e04444;}.e{fill:#ffc8c8;}.f{fill:#a00;}.g{fill:#7a0000;}.h{fill:#ffa1a1;}</style></defs><g transform="translate(-41.03 0)"><path class="a" d="M470.97,42.968V337.08c0,63.1-37.62,113.476-108.8,145.652-51.61,23.343-102.46,28.878-104.6,29.108L256,512l-1.57-.16c-2.14-.23-52.99-5.766-104.6-29.108C78.65,450.556,41.03,400.183,41.03,337.08V42.968L256,0l1.5.3Z"/><path class="b" d="M470.97,42.968V337.08c0,63.1-37.62,113.476-108.8,145.652-51.61,23.343-102.46,28.878-104.6,29.108L256,512V.3h1.5Z"/><path class="c" d="M337.76,296.52v92.4H174.24v-92.4a81.76,81.76,0,1,1,163.52,0Z"/><path class="d" d="M337.76,296.52v92.4H256V214.76A81.85,81.85,0,0,1,337.76,296.52Z"/><path class="e" d="M324.01,177.38c0,37.15-30.51,67.38-68.01,67.38s-68.02-30.23-68.02-67.38S218.49,110,256,110,324.01,140.23,324.01,177.38Z"/><path class="f" d="M241,286.84h30v30H241Z"/><path class="g" d="M256,286.84h15v30H256Z"/><path class="h" d="M324.01,177.38c0,37.15-30.51,67.38-68.01,67.38V110C293.5,110,324.01,140.23,324.01,177.38Z"/></g></svg>