<svg xmlns="http://www.w3.org/2000/svg" width="512" height="512" viewBox="0 0 512 512"><defs><style>.a{fill:#ffe26f;}.b{fill:#ffc271;}.c{fill:#ff7d7d;}.d{fill:#cae8ea;}.e{fill:#e04444;}.f{fill:#ff9e73;}.g{fill:#fff4b0;}.h{fill:#811818;}.i{fill:#5f0000;}</style></defs><path class="a" d="M457.67,497H54.33L89.74,357H425.12Z"/><path class="b" d="M457.67,497H255.21V357H425.12Z"/><ellipse class="c" cx="226.07" cy="226" rx="226.07" ry="226" transform="translate(29.14)"/><path class="d" d="M481.28,226c0,124.82-101.22,226-226.07,226V345.63a119.63,119.63,0,1,0,0-239.26V0C380.06,0,481.28,101.18,481.28,226Z"/><path class="e" d="M481.28,226c0,124.82-101.22,226-226.07,226V0C380.06,0,481.28,101.18,481.28,226Z"/><path class="b" d="M389.77,226A134.565,134.565,0,1,1,255.21,91.48,134.539,134.539,0,0,1,389.77,226Z"/><path class="f" d="M389.77,226A134.539,134.539,0,0,1,255.21,360.52V91.48A134.539,134.539,0,0,1,389.77,226Z"/><path class="g" d="M305.03,256.53c0,20.34-14.66,37.6-34.82,43.43v14.42h-30V299.96c-20.17-5.83-34.83-23.09-34.83-43.43h30c0,8.42,9.08,15.54,19.83,15.54s19.82-7.12,19.82-15.54S265.95,241,255.21,241c-27.48,0-49.83-20.43-49.83-45.53,0-20.34,14.66-37.6,34.83-43.43V137.62h30v14.42c20.16,5.83,34.82,23.09,34.82,43.43h-30c0-8.42-9.08-15.54-19.82-15.54s-19.83,7.12-19.83,15.54S244.46,211,255.21,211C282.68,211,305.03,231.43,305.03,256.53Z"/><path class="a" d="M255.21,76.37c-82.53,0-149.67,67.13-149.67,149.63s67.14,149.63,149.67,149.63S404.87,308.5,404.87,226,337.73,76.37,255.21,76.37Zm0,269.26A119.63,119.63,0,1,1,374.87,226,119.786,119.786,0,0,1,255.21,345.63Z"/><path class="a" d="M305.03,256.53c0,20.34-14.66,37.6-34.82,43.43v14.42h-15V272.07c10.74,0,19.82-7.12,19.82-15.54S265.95,241,255.21,241V211C282.68,211,305.03,231.43,305.03,256.53Z"/><path class="a" d="M255.21,179.93V137.62h15v14.42c20.16,5.83,34.82,23.09,34.82,43.43h-30c0-8.42-9.08-15.54-19.82-15.54Z"/><path class="b" d="M404.87,226c0,82.5-67.14,149.63-149.66,149.63v-30a119.63,119.63,0,1,0,0-239.26v-30C337.73,76.37,404.87,143.5,404.87,226Z"/><path class="h" d="M0,482H512v30H0Z"/><path class="i" d="M512,37.592H474.494V0h-30V46.357L324.635,165.624,345.8,186.89l119.89-119.3H512Z"/><path class="i" d="M255.21,482H512v30H255.21Z"/></svg>