<svg xmlns="http://www.w3.org/2000/svg" width="512" height="382" viewBox="0 0 512 382"><defs><style>.a{fill:#cce6ff;}.b{fill:#d1406e;}.c{fill:#e04444;}.d{fill:#ff7d7d;}.e{fill:#dba7a7;}.f{fill:#eacaca;}.g{fill:#eee;}.h{fill:#5f0000;}</style></defs><g transform="translate(0 -65)"><path class="a" d="M412.65,107.667H332V256l180-21.056v-.108Z"/><path class="b" d="M332,234.944H512V393.666H332Z"/><path class="c" d="M356.333,65H186.268l-15.6,159,15.6,169.667H356.333Z"/><path class="d" d="M0,393.667H186.268V245.333L0,265.667Z"/><path class="d" d="M0,65v96l186.267,20.333V65Z"/><path class="e" d="M235.314,265.667,265.219,161H186.268l-15.6,52.333,15.6,52.334Z"/><path class="f" d="M0,161H186.268V265.666H0Z"/><circle class="g" cx="48" cy="48" r="48" transform="translate(74.667 336)"/><path class="h" d="M122.667,447a63,63,0,1,1,63-63,63.072,63.072,0,0,1-63,63Zm0-96a33,33,0,1,0,33,33,33.038,33.038,0,0,0-33-33Z"/><circle class="g" cx="48" cy="48" r="48" transform="translate(341.333 336)"/><path class="h" d="M389.333,447a63,63,0,1,1,63-63A63.072,63.072,0,0,1,389.333,447Zm0-96a33,33,0,1,0,33,33A33.038,33.038,0,0,0,389.333,351Z"/></g></svg>