<svg xmlns="http://www.w3.org/2000/svg" xmlns:xlink="http://www.w3.org/1999/xlink" width="512" height="365.018" viewBox="0 0 512 365.018"><defs><style>.a{fill:#fff;}.b{fill:url(#a);}.c{fill:url(#b);}</style><linearGradient id="a" x1="0.5" x2="0.5" y2="1" gradientUnits="objectBoundingBox"><stop offset="0" stop-color="#96f3d1"/><stop offset="1" stop-color="#f0ffcc"/></linearGradient><linearGradient id="b" x1="0.5" x2="0.5" y2="1" gradientUnits="objectBoundingBox"><stop offset="0" stop-color="#ff9e9e"/><stop offset="1" stop-color="#b3004e"/></linearGradient></defs><g transform="translate(0 -73.491)"><path class="a" d="M463.5,242.009l-40-60h-115v-36H7.5v223h34a62,62,0,0,0,124,0h157a62,62,0,0,0,124,0h58v-86A41,41,0,0,0,463.5,242.009Z"/><circle class="b" cx="91.667" cy="91.667" r="91.667" transform="translate(66.333 80.842)"/><path class="c" d="M467.63,234.683l-40.116-60.174H316v-36H251.161c-31.741-86.7-154.589-86.678-186.322,0H0v238H34.411a69.494,69.494,0,0,0,138.178,0H315.411a69.494,69.494,0,0,0,138.178,0H512v-93.5A48.566,48.566,0,0,0,467.63,234.683ZM497,305.509H469.5c-9.926,0-9.916-15,0-15H497Zm-47.514-71H366v-45h53.486Zm-280.245,112H318.759a68.917,68.917,0,0,0-3.348,15H172.589A68.917,68.917,0,0,0,169.241,346.509ZM158,88.342a84.167,84.167,0,1,1-84.167,84.167A84.262,84.262,0,0,1,158,88.342ZM15,153.509H60.667C48.749,214.679,95.709,271.676,158,271.676c62.227,0,109.264-56.929,97.332-118.167H301v178H161.968c-27.479-42.694-89.522-42.593-116.937,0H15Zm0,193H37.759a68.918,68.918,0,0,0-3.348,15H15Zm88.5,77a54.5,54.5,0,1,1,54.5-54.5A54.562,54.562,0,0,1,103.5,423.509Zm281,0a54.5,54.5,0,1,1,54.5-54.5A54.561,54.561,0,0,1,384.5,423.509Zm112.5-62H453.589a68.919,68.919,0,0,0-3.348-15H497Zm-54.032-30c-27.479-42.694-89.523-42.593-116.937,0H316v-142h35v60H463.5a33.552,33.552,0,0,1,32.643,26H469.5a22.5,22.5,0,0,0,0,45H497v11Zm-339.468,15a22.5,22.5,0,1,0,22.5,22.5A22.526,22.526,0,0,0,103.5,346.509Zm0,30a7.508,7.508,0,0,1-7.5-7.5c0-9.926,15-9.916,15,0A7.508,7.508,0,0,1,103.5,376.509Zm281-30a22.5,22.5,0,1,0,22.5,22.5A22.526,22.526,0,0,0,384.5,346.509Zm0,30a7.5,7.5,0,1,1,7.5-7.5A7.508,7.508,0,0,1,384.5,376.509ZM139.755,220.651,107.314,194.7l9.371-11.713L137.577,199.7l60.633-73.626,11.579,9.535Z"/></g></svg>